<?xml version="1.0" encoding="UTF-8"?><svg xmlns="http://www.w3.org/2000/svg" xmlns:xlink="http://www.w3.org/1999/xlink" fill-opacity="1" color-rendering="auto" color-interpolation="auto" text-rendering="auto" stroke="black" stroke-linecap="square" width="741" stroke-miterlimit="10" shape-rendering="auto" stroke-opacity="1" fill="black" stroke-dasharray="none" font-weight="normal" stroke-width="1" height="309" font-family="'Dialog'" font-style="normal" stroke-linejoin="miter" font-size="12px" stroke-dashoffset="0" image-rendering="auto">
  <!--Generated by ySVG 2.5-->
  <defs id="genericDefs"/>
  <g>
    <defs id="defs1">
      <linearGradient x1="609.424" gradientUnits="userSpaceOnUse" x2="689.424" y1="348.004" y2="388.004" id="linearGradient1" spreadMethod="reflect">
        <stop stop-opacity="1" stop-color="rgb(232,238,247)" offset="0%"/>
        <stop stop-opacity="1" stop-color="rgb(183,201,227)" offset="100%"/>
      </linearGradient>
      <linearGradient x1="316.84" gradientUnits="userSpaceOnUse" x2="396.84" y1="348.004" y2="388.004" id="linearGradient2" spreadMethod="reflect">
        <stop stop-opacity="1" stop-color="rgb(232,238,247)" offset="0%"/>
        <stop stop-opacity="1" stop-color="rgb(183,201,227)" offset="100%"/>
      </linearGradient>
      <linearGradient x1="609.424" gradientUnits="userSpaceOnUse" x2="689.424" y1="276.48" y2="316.48" id="linearGradient3" spreadMethod="reflect">
        <stop stop-opacity="1" stop-color="rgb(232,238,247)" offset="0%"/>
        <stop stop-opacity="1" stop-color="rgb(183,201,227)" offset="100%"/>
      </linearGradient>
      <linearGradient x1="489.5" gradientUnits="userSpaceOnUse" x2="569.5" y1="244.0737" y2="284.0738" id="linearGradient4" spreadMethod="reflect">
        <stop stop-opacity="1" stop-color="rgb(232,238,247)" offset="0%"/>
        <stop stop-opacity="1" stop-color="rgb(183,201,227)" offset="100%"/>
      </linearGradient>
      <linearGradient x1="489.5" gradientUnits="userSpaceOnUse" x2="569.5" y1="434.528" y2="474.528" id="linearGradient5" spreadMethod="reflect">
        <stop stop-opacity="1" stop-color="rgb(232,238,247)" offset="0%"/>
        <stop stop-opacity="1" stop-color="rgb(183,201,227)" offset="100%"/>
      </linearGradient>
      <linearGradient x1="489.5" gradientUnits="userSpaceOnUse" x2="569.5" y1="370.9684" y2="410.9684" id="linearGradient6" spreadMethod="reflect">
        <stop stop-opacity="1" stop-color="rgb(232,238,247)" offset="0%"/>
        <stop stop-opacity="1" stop-color="rgb(183,201,227)" offset="100%"/>
      </linearGradient>
      <linearGradient x1="489.5" gradientUnits="userSpaceOnUse" x2="569.5" y1="307.4089" y2="347.4089" id="linearGradient7" spreadMethod="reflect">
        <stop stop-opacity="1" stop-color="rgb(232,238,247)" offset="0%"/>
        <stop stop-opacity="1" stop-color="rgb(183,201,227)" offset="100%"/>
      </linearGradient>
      <linearGradient x1="725.848" gradientUnits="userSpaceOnUse" x2="805.848" y1="312.242" y2="352.242" id="linearGradient8" spreadMethod="reflect">
        <stop stop-opacity="1" stop-color="rgb(232,238,247)" offset="0%"/>
        <stop stop-opacity="1" stop-color="rgb(183,201,227)" offset="100%"/>
      </linearGradient>
      <linearGradient x1="725.848" gradientUnits="userSpaceOnUse" x2="805.848" y1="373.385" y2="413.385" id="linearGradient9" spreadMethod="reflect">
        <stop stop-opacity="1" stop-color="rgb(232,238,247)" offset="0%"/>
        <stop stop-opacity="1" stop-color="rgb(183,201,227)" offset="100%"/>
      </linearGradient>
      <linearGradient x1="725.848" gradientUnits="userSpaceOnUse" x2="805.848" y1="434.528" y2="474.528" id="linearGradient10" spreadMethod="reflect">
        <stop stop-opacity="1" stop-color="rgb(232,238,247)" offset="0%"/>
        <stop stop-opacity="1" stop-color="rgb(183,201,227)" offset="100%"/>
      </linearGradient>
      <linearGradient x1="725.848" gradientUnits="userSpaceOnUse" x2="805.848" y1="244.0737" y2="284.0738" id="linearGradient11" spreadMethod="reflect">
        <stop stop-opacity="1" stop-color="rgb(232,238,247)" offset="0%"/>
        <stop stop-opacity="1" stop-color="rgb(183,201,227)" offset="100%"/>
      </linearGradient>
      <linearGradient x1="946.1725" gradientUnits="userSpaceOnUse" x2="1026.1726" y1="434.528" y2="474.528" id="linearGradient12" spreadMethod="reflect">
        <stop stop-opacity="1" stop-color="rgb(232,238,247)" offset="0%"/>
        <stop stop-opacity="1" stop-color="rgb(183,201,227)" offset="100%"/>
      </linearGradient>
      <linearGradient x1="836.0103" gradientUnits="userSpaceOnUse" x2="916.0103" y1="434.528" y2="474.528" id="linearGradient13" spreadMethod="reflect">
        <stop stop-opacity="1" stop-color="rgb(232,238,247)" offset="0%"/>
        <stop stop-opacity="1" stop-color="rgb(183,201,227)" offset="100%"/>
      </linearGradient>
      <clipPath clipPathUnits="userSpaceOnUse" id="clipPath1">
        <path d="M0 0 L741 0 L741 309 L0 309 L0 0 Z"/>
      </clipPath>
      <clipPath clipPathUnits="userSpaceOnUse" id="clipPath2">
        <path d="M301 196 L1042 196 L1042 505 L301 505 L301 196 Z"/>
      </clipPath>
    </defs>
    <g fill="url(#linearGradient1)" text-rendering="geometricPrecision" shape-rendering="geometricPrecision" transform="matrix(1,0,0,1,-301,-196)" stroke="url(#linearGradient1)">
      <path d="M614.424 348.004 L689.424 348.004 Q679.424 368.004 689.424 388.004 L614.424 388.004 Q604.424 368.004 614.424 348.004 Z" stroke="none" clip-path="url(#clipPath2)"/>
    </g>
    <g text-rendering="geometricPrecision" stroke-miterlimit="1.45" shape-rendering="geometricPrecision" transform="matrix(1,0,0,1,-301,-196)" stroke-linecap="butt">
      <path fill="none" d="M614.424 348.004 L689.424 348.004 Q679.424 368.004 689.424 388.004 L614.424 388.004 Q604.424 368.004 614.424 348.004 Z" clip-path="url(#clipPath2)"/>
      <text x="627.4191" xml:space="preserve" y="358.7579" clip-path="url(#clipPath2)" font-family="sans-serif" stroke="none">Working</text>
      <text x="626.4172" xml:space="preserve" y="372.1642" clip-path="url(#clipPath2)" font-family="sans-serif" stroke="none">directory</text>
      <text x="619.0783" xml:space="preserve" y="385.5704" clip-path="url(#clipPath2)" font-family="sans-serif" stroke="none">(encrypted)</text>
    </g>
    <g fill="url(#linearGradient2)" text-rendering="geometricPrecision" shape-rendering="geometricPrecision" transform="matrix(1,0,0,1,-301,-196)" stroke="url(#linearGradient2)">
      <path d="M321.84 348.004 L396.84 348.004 Q386.84 368.004 396.84 388.004 L321.84 388.004 Q311.84 368.004 321.84 348.004 Z" stroke="none" clip-path="url(#clipPath2)"/>
    </g>
    <g text-rendering="geometricPrecision" stroke-miterlimit="1.45" shape-rendering="geometricPrecision" transform="matrix(1,0,0,1,-301,-196)" stroke-linecap="butt">
      <path fill="none" d="M321.84 348.004 L396.84 348.004 Q386.84 368.004 396.84 388.004 L321.84 388.004 Q311.84 368.004 321.84 348.004 Z" clip-path="url(#clipPath2)"/>
      <text x="334.8263" xml:space="preserve" y="358.7579" clip-path="url(#clipPath2)" font-family="sans-serif" stroke="none">Caching</text>
      <text x="333.8332" xml:space="preserve" y="372.1642" clip-path="url(#clipPath2)" font-family="sans-serif" stroke="none">directory</text>
      <text x="334.4982" xml:space="preserve" y="385.5704" clip-path="url(#clipPath2)" font-family="sans-serif" stroke="none">(shared)</text>
    </g>
    <g fill="url(#linearGradient3)" text-rendering="geometricPrecision" shape-rendering="geometricPrecision" transform="matrix(1,0,0,1,-301,-196)" stroke="url(#linearGradient3)">
      <ellipse rx="40" ry="20" clip-path="url(#clipPath2)" cx="649.424" cy="296.48" stroke="none"/>
    </g>
    <g text-rendering="geometricPrecision" stroke-miterlimit="1.45" shape-rendering="geometricPrecision" transform="matrix(1,0,0,1,-301,-196)" stroke-linecap="butt">
      <ellipse rx="40" fill="none" ry="20" clip-path="url(#clipPath2)" cx="649.424" cy="296.48"/>
      <text x="611.4142" xml:space="preserve" y="300.6402" clip-path="url(#clipPath2)" font-family="sans-serif" stroke="none">mount-workdir</text>
    </g>
    <g text-rendering="geometricPrecision" stroke-miterlimit="1.45" shape-rendering="geometricPrecision" transform="matrix(1,0,0,1,-301,-196)" stroke-linecap="butt">
      <path fill="none" d="M649.424 347.9926 L649.424 327.4764" clip-path="url(#clipPath2)"/>
      <path d="M649.424 316.4764 L643.424 328.4764 L655.424 328.4764 Z" clip-path="url(#clipPath2)" stroke="none"/>
    </g>
    <g fill="rgb(104,176,227)" text-rendering="geometricPrecision" shape-rendering="geometricPrecision" transform="matrix(1,0,0,1,-301,-196)" stroke="rgb(104,176,227)">
      <path d="M473.4766 211.6675 L473.4766 489.528 L585.5234 489.528 L585.5234 211.6675 ZM474.4766 233.6675 L474.4766 488.528 L584.5234 488.528 L584.5234 233.6675 Z" fill-rule="evenodd" clip-path="url(#clipPath2)" stroke="none"/>
    </g>
    <g stroke-linecap="butt" transform="matrix(1,0,0,1,-301,-196)" fill="white" text-rendering="geometricPrecision" font-family="sans-serif" shape-rendering="geometricPrecision" stroke="white" stroke-miterlimit="1.45">
      <text x="475.4766" xml:space="preserve" y="224.5308" clip-path="url(#clipPath2)" stroke="none">execute</text>
    </g>
    <g fill="url(#linearGradient4)" text-rendering="geometricPrecision" shape-rendering="geometricPrecision" transform="matrix(1,0,0,1,-301,-196)" stroke="url(#linearGradient4)">
      <ellipse rx="40" ry="20" clip-path="url(#clipPath2)" cx="529.5" cy="264.0737" stroke="none"/>
    </g>
    <g text-rendering="geometricPrecision" stroke-miterlimit="1.45" shape-rendering="geometricPrecision" transform="matrix(1,0,0,1,-301,-196)" stroke-linecap="butt">
      <ellipse rx="40" fill="none" ry="20" clip-path="url(#clipPath2)" cx="529.5" cy="264.0737"/>
      <text x="521.8301" xml:space="preserve" y="268.2339" clip-path="url(#clipPath2)" font-family="sans-serif" stroke="none">init</text>
    </g>
    <g fill="url(#linearGradient5)" text-rendering="geometricPrecision" shape-rendering="geometricPrecision" transform="matrix(1,0,0,1,-301,-196)" stroke="url(#linearGradient5)">
      <ellipse rx="40" ry="20" clip-path="url(#clipPath2)" cx="529.5" cy="454.528" stroke="none"/>
    </g>
    <g text-rendering="geometricPrecision" stroke-miterlimit="1.45" shape-rendering="geometricPrecision" transform="matrix(1,0,0,1,-301,-196)" stroke-linecap="butt">
      <ellipse rx="40" fill="none" ry="20" clip-path="url(#clipPath2)" cx="529.5" cy="454.528"/>
      <text x="490.4766" xml:space="preserve" y="458.6882" clip-path="url(#clipPath2)" font-family="sans-serif" stroke="none">offline-execute</text>
    </g>
    <g fill="url(#linearGradient6)" text-rendering="geometricPrecision" shape-rendering="geometricPrecision" transform="matrix(1,0,0,1,-301,-196)" stroke="url(#linearGradient6)">
      <ellipse rx="40" ry="20" clip-path="url(#clipPath2)" cx="529.5" cy="390.9684" stroke="none"/>
    </g>
    <g text-rendering="geometricPrecision" stroke-miterlimit="1.45" shape-rendering="geometricPrecision" transform="matrix(1,0,0,1,-301,-196)" stroke-linecap="butt">
      <ellipse rx="40" fill="none" ry="20" clip-path="url(#clipPath2)" cx="529.5" cy="390.9684"/>
      <text x="514.8223" xml:space="preserve" y="395.1286" clip-path="url(#clipPath2)" font-family="sans-serif" stroke="none">stage</text>
    </g>
    <g fill="url(#linearGradient7)" text-rendering="geometricPrecision" shape-rendering="geometricPrecision" transform="matrix(1,0,0,1,-301,-196)" stroke="url(#linearGradient7)">
      <ellipse rx="40" ry="20" clip-path="url(#clipPath2)" cx="529.5" cy="327.4089" stroke="none"/>
    </g>
    <g text-rendering="geometricPrecision" stroke-miterlimit="1.45" shape-rendering="geometricPrecision" transform="matrix(1,0,0,1,-301,-196)" stroke-linecap="butt">
      <ellipse rx="40" fill="none" ry="20" clip-path="url(#clipPath2)" cx="529.5" cy="327.4089"/>
      <text x="490.8105" xml:space="preserve" y="331.569" clip-path="url(#clipPath2)" font-family="sans-serif" stroke="none">config-validate</text>
    </g>
    <g fill="url(#linearGradient8)" text-rendering="geometricPrecision" shape-rendering="geometricPrecision" transform="matrix(1,0,0,1,-301,-196)" stroke="url(#linearGradient8)">
      <ellipse rx="40" ry="20" clip-path="url(#clipPath2)" cx="765.848" cy="332.242" stroke="none"/>
    </g>
    <g text-rendering="geometricPrecision" stroke-miterlimit="1.45" shape-rendering="geometricPrecision" transform="matrix(1,0,0,1,-301,-196)" stroke-linecap="butt">
      <ellipse rx="40" fill="none" ry="20" clip-path="url(#clipPath2)" cx="765.848" cy="332.242"/>
      <text x="732.4965" xml:space="preserve" y="336.4022" clip-path="url(#clipPath2)" font-family="sans-serif" stroke="none">export-stage</text>
    </g>
    <g fill="url(#linearGradient9)" text-rendering="geometricPrecision" shape-rendering="geometricPrecision" transform="matrix(1,0,0,1,-301,-196)" stroke="url(#linearGradient9)">
      <ellipse rx="40" ry="20" clip-path="url(#clipPath2)" cx="765.848" cy="393.385" stroke="none"/>
    </g>
    <g text-rendering="geometricPrecision" stroke-miterlimit="1.45" shape-rendering="geometricPrecision" transform="matrix(1,0,0,1,-301,-196)" stroke-linecap="butt">
      <ellipse rx="40" fill="none" ry="20" clip-path="url(#clipPath2)" cx="765.848" cy="393.385"/>
      <text x="729.5023" xml:space="preserve" y="397.5452" clip-path="url(#clipPath2)" font-family="sans-serif" stroke="none">export-results</text>
    </g>
    <g fill="url(#linearGradient10)" text-rendering="geometricPrecision" shape-rendering="geometricPrecision" transform="matrix(1,0,0,1,-301,-196)" stroke="url(#linearGradient10)">
      <path d="M730.848 434.528 L805.848 434.528 Q795.848 454.528 805.848 474.528 L730.848 474.528 Q720.848 454.528 730.848 434.528 Z" stroke="none" clip-path="url(#clipPath2)"/>
    </g>
    <g text-rendering="geometricPrecision" stroke-miterlimit="1.45" shape-rendering="geometricPrecision" transform="matrix(1,0,0,1,-301,-196)" stroke-linecap="butt">
      <path fill="none" d="M730.848 434.528 L805.848 434.528 Q795.848 454.528 805.848 474.528 L730.848 474.528 Q720.848 454.528 730.848 434.528 Z" clip-path="url(#clipPath2)"/>
      <text x="748.5072" xml:space="preserve" y="445.2819" clip-path="url(#clipPath2)" font-family="sans-serif" stroke="none">Export</text>
      <text x="739.4984" xml:space="preserve" y="458.6882" clip-path="url(#clipPath2)" font-family="sans-serif" stroke="none">Execution</text>
      <text x="745.8412" xml:space="preserve" y="472.0944" clip-path="url(#clipPath2)" font-family="sans-serif" stroke="none">Results</text>
    </g>
    <g fill="url(#linearGradient11)" text-rendering="geometricPrecision" shape-rendering="geometricPrecision" transform="matrix(1,0,0,1,-301,-196)" stroke="url(#linearGradient11)">
      <path d="M730.848 244.0737 L805.848 244.0737 Q795.848 264.0738 805.848 284.0738 L730.848 284.0738 Q720.848 264.0738 730.848 244.0737 Z" stroke="none" clip-path="url(#clipPath2)"/>
    </g>
    <g text-rendering="geometricPrecision" stroke-miterlimit="1.45" shape-rendering="geometricPrecision" transform="matrix(1,0,0,1,-301,-196)" stroke-linecap="butt">
      <path fill="none" d="M730.848 244.0737 L805.848 244.0737 Q795.848 264.0738 805.848 284.0738 L730.848 284.0738 Q720.848 264.0738 730.848 244.0737 Z" clip-path="url(#clipPath2)"/>
      <text x="746.8314" xml:space="preserve" y="254.8277" clip-path="url(#clipPath2)" font-family="sans-serif" stroke="none">Staged</text>
      <text x="741.1801" xml:space="preserve" y="268.2339" clip-path="url(#clipPath2)" font-family="sans-serif" stroke="none">Workflow</text>
      <text x="740.1781" xml:space="preserve" y="281.6402" clip-path="url(#clipPath2)" font-family="sans-serif" stroke="none">RO-Crate</text>
    </g>
    <g fill="url(#linearGradient12)" text-rendering="geometricPrecision" shape-rendering="geometricPrecision" transform="matrix(1,0,0,1,-301,-196)" stroke="url(#linearGradient12)">
      <path d="M951.1725 434.528 L1026.1726 434.528 Q1016.1725 454.528 1026.1726 474.528 L951.1725 474.528 Q941.1725 454.528 951.1725 434.528 Z" stroke="none" clip-path="url(#clipPath2)"/>
    </g>
    <g text-rendering="geometricPrecision" stroke-miterlimit="1.45" shape-rendering="geometricPrecision" transform="matrix(1,0,0,1,-301,-196)" stroke-linecap="butt">
      <path fill="none" d="M951.1725 434.528 L1026.1726 434.528 Q1016.1725 454.528 1026.1726 474.528 L951.1725 474.528 Q941.1725 454.528 951.1725 434.528 Z" clip-path="url(#clipPath2)"/>
      <text x="968.8317" xml:space="preserve" y="445.2819" clip-path="url(#clipPath2)" font-family="sans-serif" stroke="none">Export</text>
      <text x="959.8229" xml:space="preserve" y="458.6882" clip-path="url(#clipPath2)" font-family="sans-serif" stroke="none">Execution</text>
      <text x="960.5026" xml:space="preserve" y="472.0944" clip-path="url(#clipPath2)" font-family="sans-serif" stroke="none">RO-Crate</text>
    </g>
    <g fill="url(#linearGradient13)" text-rendering="geometricPrecision" shape-rendering="geometricPrecision" transform="matrix(1,0,0,1,-301,-196)" stroke="url(#linearGradient13)">
      <ellipse rx="40" ry="20" clip-path="url(#clipPath2)" cx="876.0103" cy="454.528" stroke="none"/>
    </g>
    <g text-rendering="geometricPrecision" stroke-miterlimit="1.45" shape-rendering="geometricPrecision" transform="matrix(1,0,0,1,-301,-196)" stroke-linecap="butt">
      <ellipse rx="40" fill="none" ry="20" clip-path="url(#clipPath2)" cx="876.0103" cy="454.528"/>
      <text x="843.9976" xml:space="preserve" y="458.6882" clip-path="url(#clipPath2)" font-family="sans-serif" stroke="none">export-crate</text>
    </g>
    <g text-rendering="geometricPrecision" stroke-miterlimit="1.45" shape-rendering="geometricPrecision" transform="matrix(1,0,0,1,-301,-196)" stroke-linecap="butt">
      <path fill="none" d="M496.0879 275.0516 L414.9244 301.7186 L406.2749 306.0413 L399.3272 312.7664 L378.9425 339.2686" clip-path="url(#clipPath2)"/>
      <path d="M372.236 347.9877 L384.308 342.134 L374.7963 334.8178 Z" clip-path="url(#clipPath2)" stroke="none"/>
    </g>
    <g text-rendering="geometricPrecision" stroke-miterlimit="1.45" shape-rendering="geometricPrecision" transform="matrix(1,0,0,1,-301,-196)" stroke-linecap="butt">
      <path fill="none" d="M396.7592 388.0085 L491.4389 435.4547" clip-path="url(#clipPath2)"/>
      <path d="M501.2731 440.3828 L493.2329 429.6425 L487.8567 440.3708 Z" clip-path="url(#clipPath2)" stroke="none"/>
    </g>
    <g text-rendering="geometricPrecision" stroke-miterlimit="1.45" shape-rendering="geometricPrecision" transform="matrix(1,0,0,1,-301,-196)" stroke-linecap="butt">
      <path fill="none" d="M561.2284 431.6363 L612.7864 394.4377" clip-path="url(#clipPath2)"/>
      <path d="M552.3078 438.0724 L565.5499 435.917 L558.5287 426.1854 Z" clip-path="url(#clipPath2)" stroke="none"/>
      <path d="M621.707 388.0016 L608.4649 390.157 L615.4861 399.8885 Z" clip-path="url(#clipPath2)" stroke="none"/>
    </g>
    <g text-rendering="geometricPrecision" stroke-miterlimit="1.45" shape-rendering="geometricPrecision" transform="matrix(1,0,0,1,-301,-196)" stroke-linecap="butt">
      <path fill="none" d="M479.9414 384.377 L403.0447 374.1494" clip-path="url(#clipPath2)"/>
      <path d="M490.8454 385.8272 L479.7412 378.2975 L478.1591 390.1927 Z" clip-path="url(#clipPath2)" stroke="none"/>
      <path d="M392.1407 372.6991 L403.2449 380.2289 L404.8271 368.3336 Z" clip-path="url(#clipPath2)" stroke="none"/>
    </g>
    <g text-rendering="geometricPrecision" stroke-miterlimit="1.45" shape-rendering="geometricPrecision" transform="matrix(1,0,0,1,-301,-196)" stroke-linecap="butt">
      <path fill="none" d="M566.8298 383.8201 L599.2994 377.6024" clip-path="url(#clipPath2)"/>
      <path d="M610.1031 375.5336 L597.1888 371.8976 L599.4457 383.6834 Z" clip-path="url(#clipPath2)" stroke="none"/>
    </g>
    <g text-rendering="geometricPrecision" stroke-miterlimit="1.45" shape-rendering="geometricPrecision" transform="matrix(1,0,0,1,-301,-196)" stroke-linecap="butt">
      <path fill="none" d="M686.0055 356.7673 L721.2205 345.9503" clip-path="url(#clipPath2)"/>
      <path d="M731.7356 342.7203 L718.5028 340.5084 L722.0264 351.9794 Z" clip-path="url(#clipPath2)" stroke="none"/>
    </g>
    <g text-rendering="geometricPrecision" stroke-miterlimit="1.45" shape-rendering="geometricPrecision" transform="matrix(1,0,0,1,-301,-196)" stroke-linecap="butt">
      <path fill="none" d="M685.2096 375.8055 L718.4431 383.0505" clip-path="url(#clipPath2)"/>
      <path d="M729.1906 385.3935 L718.744 376.9752 L716.188 388.6998 Z" clip-path="url(#clipPath2)" stroke="none"/>
    </g>
    <g text-rendering="geometricPrecision" stroke-miterlimit="1.45" shape-rendering="geometricPrecision" transform="matrix(1,0,0,1,-301,-196)" stroke-linecap="butt">
      <path fill="none" d="M765.848 413.358 L765.848 423.5461" clip-path="url(#clipPath2)"/>
      <path d="M765.848 434.5461 L771.848 422.5461 L759.848 422.5461 Z" clip-path="url(#clipPath2)" stroke="none"/>
    </g>
    <g text-rendering="geometricPrecision" stroke-miterlimit="1.45" shape-rendering="geometricPrecision" transform="matrix(1,0,0,1,-301,-196)" stroke-linecap="butt">
      <path fill="none" d="M765.848 312.2375 L765.848 295.0636" clip-path="url(#clipPath2)"/>
      <path d="M765.848 284.0636 L759.848 296.0636 L771.848 296.0636 Z" clip-path="url(#clipPath2)" stroke="none"/>
    </g>
    <g text-rendering="geometricPrecision" stroke-miterlimit="1.45" shape-rendering="geometricPrecision" transform="matrix(1,0,0,1,-301,-196)" stroke-linecap="butt">
      <path fill="none" d="M800.8385 454.528 L825.0386 454.528" clip-path="url(#clipPath2)"/>
      <path d="M836.0386 454.528 L824.0386 448.528 L824.0386 460.528 Z" clip-path="url(#clipPath2)" stroke="none"/>
    </g>
    <g text-rendering="geometricPrecision" stroke-miterlimit="1.45" shape-rendering="geometricPrecision" transform="matrix(1,0,0,1,-301,-196)" stroke-linecap="butt">
      <path fill="none" d="M916.0033 454.528 L935.1884 454.528" clip-path="url(#clipPath2)"/>
      <path d="M946.1884 454.528 L934.1884 448.528 L934.1884 460.528 Z" clip-path="url(#clipPath2)" stroke="none"/>
    </g>
  </g>
</svg>
