<?xml version="1.0" encoding="UTF-8"?><svg xmlns="http://www.w3.org/2000/svg" xmlns:xlink="http://www.w3.org/1999/xlink" fill-opacity="1" color-rendering="auto" color-interpolation="auto" text-rendering="auto" stroke="black" stroke-linecap="square" width="520" stroke-miterlimit="10" shape-rendering="auto" stroke-opacity="1" fill="black" stroke-dasharray="none" font-weight="normal" stroke-width="1" height="266" font-family="'Dialog'" font-style="normal" stroke-linejoin="miter" font-size="12px" stroke-dashoffset="0" image-rendering="auto">
  <!--Generated by ySVG 2.5-->
  <defs id="genericDefs"/>
  <g>
    <defs id="defs1">
      <linearGradient x1="609.424" gradientUnits="userSpaceOnUse" x2="689.424" y1="348.004" y2="388.004" id="linearGradient1" spreadMethod="reflect">
        <stop stop-opacity="1" stop-color="rgb(232,238,247)" offset="0%"/>
        <stop stop-opacity="1" stop-color="rgb(183,201,227)" offset="100%"/>
      </linearGradient>
      <linearGradient x1="316.84" gradientUnits="userSpaceOnUse" x2="396.84" y1="348.004" y2="388.004" id="linearGradient2" spreadMethod="reflect">
        <stop stop-opacity="1" stop-color="rgb(232,238,247)" offset="0%"/>
        <stop stop-opacity="1" stop-color="rgb(183,201,227)" offset="100%"/>
      </linearGradient>
      <linearGradient x1="609.424" gradientUnits="userSpaceOnUse" x2="689.424" y1="276.48" y2="316.48" id="linearGradient3" spreadMethod="reflect">
        <stop stop-opacity="1" stop-color="rgb(232,238,247)" offset="0%"/>
        <stop stop-opacity="1" stop-color="rgb(183,201,227)" offset="100%"/>
      </linearGradient>
      <linearGradient x1="489.5" gradientUnits="userSpaceOnUse" x2="569.5" y1="276.48" y2="316.48" id="linearGradient4" spreadMethod="reflect">
        <stop stop-opacity="1" stop-color="rgb(232,238,247)" offset="0%"/>
        <stop stop-opacity="1" stop-color="rgb(183,201,227)" offset="100%"/>
      </linearGradient>
      <linearGradient x1="489.5" gradientUnits="userSpaceOnUse" x2="569.5" y1="419.528" y2="459.528" id="linearGradient5" spreadMethod="reflect">
        <stop stop-opacity="1" stop-color="rgb(232,238,247)" offset="0%"/>
        <stop stop-opacity="1" stop-color="rgb(183,201,227)" offset="100%"/>
      </linearGradient>
      <linearGradient x1="489.5" gradientUnits="userSpaceOnUse" x2="569.5" y1="348.004" y2="388.004" id="linearGradient6" spreadMethod="reflect">
        <stop stop-opacity="1" stop-color="rgb(232,238,247)" offset="0%"/>
        <stop stop-opacity="1" stop-color="rgb(183,201,227)" offset="100%"/>
      </linearGradient>
      <linearGradient x1="725.848" gradientUnits="userSpaceOnUse" x2="805.848" y1="322.96" y2="362.96" id="linearGradient7" spreadMethod="reflect">
        <stop stop-opacity="1" stop-color="rgb(232,238,247)" offset="0%"/>
        <stop stop-opacity="1" stop-color="rgb(183,201,227)" offset="100%"/>
      </linearGradient>
      <linearGradient x1="725.848" gradientUnits="userSpaceOnUse" x2="805.848" y1="370.744" y2="410.744" id="linearGradient8" spreadMethod="reflect">
        <stop stop-opacity="1" stop-color="rgb(232,238,247)" offset="0%"/>
        <stop stop-opacity="1" stop-color="rgb(183,201,227)" offset="100%"/>
      </linearGradient>
      <linearGradient x1="725.848" gradientUnits="userSpaceOnUse" x2="805.848" y1="434.528" y2="474.528" id="linearGradient9" spreadMethod="reflect">
        <stop stop-opacity="1" stop-color="rgb(232,238,247)" offset="0%"/>
        <stop stop-opacity="1" stop-color="rgb(183,201,227)" offset="100%"/>
      </linearGradient>
      <linearGradient x1="725.848" gradientUnits="userSpaceOnUse" x2="805.848" y1="244.0737" y2="284.0738" id="linearGradient10" spreadMethod="reflect">
        <stop stop-opacity="1" stop-color="rgb(232,238,247)" offset="0%"/>
        <stop stop-opacity="1" stop-color="rgb(183,201,227)" offset="100%"/>
      </linearGradient>
      <clipPath clipPathUnits="userSpaceOnUse" id="clipPath1">
        <path d="M0 0 L520 0 L520 266 L0 266 L0 0 Z"/>
      </clipPath>
      <clipPath clipPathUnits="userSpaceOnUse" id="clipPath2">
        <path d="M301 226 L821 226 L821 492 L301 492 L301 226 Z"/>
      </clipPath>
    </defs>
    <g fill="url(#linearGradient1)" text-rendering="geometricPrecision" shape-rendering="geometricPrecision" transform="matrix(1,0,0,1,-301,-226)" stroke="url(#linearGradient1)">
      <path d="M614.424 348.004 L689.424 348.004 Q679.424 368.004 689.424 388.004 L614.424 388.004 Q604.424 368.004 614.424 348.004 Z" stroke="none" clip-path="url(#clipPath2)"/>
    </g>
    <g text-rendering="geometricPrecision" stroke-miterlimit="1.45" shape-rendering="geometricPrecision" transform="matrix(1,0,0,1,-301,-226)" stroke-linecap="butt">
      <path fill="none" d="M614.424 348.004 L689.424 348.004 Q679.424 368.004 689.424 388.004 L614.424 388.004 Q604.424 368.004 614.424 348.004 Z" clip-path="url(#clipPath2)"/>
      <text x="627.4191" xml:space="preserve" y="358.7579" clip-path="url(#clipPath2)" font-family="sans-serif" stroke="none">Working</text>
      <text x="626.4172" xml:space="preserve" y="372.1642" clip-path="url(#clipPath2)" font-family="sans-serif" stroke="none">directory</text>
      <text x="619.0783" xml:space="preserve" y="385.5704" clip-path="url(#clipPath2)" font-family="sans-serif" stroke="none">(encrypted)</text>
    </g>
    <g fill="url(#linearGradient2)" text-rendering="geometricPrecision" shape-rendering="geometricPrecision" transform="matrix(1,0,0,1,-301,-226)" stroke="url(#linearGradient2)">
      <path d="M321.84 348.004 L396.84 348.004 Q386.84 368.004 396.84 388.004 L321.84 388.004 Q311.84 368.004 321.84 348.004 Z" stroke="none" clip-path="url(#clipPath2)"/>
    </g>
    <g text-rendering="geometricPrecision" stroke-miterlimit="1.45" shape-rendering="geometricPrecision" transform="matrix(1,0,0,1,-301,-226)" stroke-linecap="butt">
      <path fill="none" d="M321.84 348.004 L396.84 348.004 Q386.84 368.004 396.84 388.004 L321.84 388.004 Q311.84 368.004 321.84 348.004 Z" clip-path="url(#clipPath2)"/>
      <text x="334.8263" xml:space="preserve" y="358.7579" clip-path="url(#clipPath2)" font-family="sans-serif" stroke="none">Caching</text>
      <text x="333.8332" xml:space="preserve" y="372.1642" clip-path="url(#clipPath2)" font-family="sans-serif" stroke="none">directory</text>
      <text x="334.4982" xml:space="preserve" y="385.5704" clip-path="url(#clipPath2)" font-family="sans-serif" stroke="none">(shared)</text>
    </g>
    <g fill="url(#linearGradient3)" text-rendering="geometricPrecision" shape-rendering="geometricPrecision" transform="matrix(1,0,0,1,-301,-226)" stroke="url(#linearGradient3)">
      <ellipse rx="40" ry="20" clip-path="url(#clipPath2)" cx="649.424" cy="296.48" stroke="none"/>
    </g>
    <g text-rendering="geometricPrecision" stroke-miterlimit="1.45" shape-rendering="geometricPrecision" transform="matrix(1,0,0,1,-301,-226)" stroke-linecap="butt">
      <ellipse rx="40" fill="none" ry="20" clip-path="url(#clipPath2)" cx="649.424" cy="296.48"/>
      <text x="611.4142" xml:space="preserve" y="300.6402" clip-path="url(#clipPath2)" font-family="sans-serif" stroke="none">mount-workdir</text>
    </g>
    <g text-rendering="geometricPrecision" stroke-miterlimit="1.45" shape-rendering="geometricPrecision" transform="matrix(1,0,0,1,-301,-226)" stroke-linecap="butt">
      <path fill="none" d="M649.424 347.9926 L649.424 327.4764" clip-path="url(#clipPath2)"/>
      <path d="M649.424 316.4764 L643.424 328.4764 L655.424 328.4764 Z" clip-path="url(#clipPath2)" stroke="none"/>
    </g>
    <g fill="rgb(104,176,227)" text-rendering="geometricPrecision" shape-rendering="geometricPrecision" transform="matrix(1,0,0,1,-301,-226)" stroke="rgb(104,176,227)">
      <path d="M473.4766 244.0737 L473.4766 474.528 L585.5234 474.528 L585.5234 244.0737 ZM474.4766 266.0738 L474.4766 473.528 L584.5234 473.528 L584.5234 266.0738 Z" fill-rule="evenodd" clip-path="url(#clipPath2)" stroke="none"/>
    </g>
    <g stroke-linecap="butt" transform="matrix(1,0,0,1,-301,-226)" fill="white" text-rendering="geometricPrecision" font-family="sans-serif" shape-rendering="geometricPrecision" stroke="white" stroke-miterlimit="1.45">
      <text x="475.4766" xml:space="preserve" y="256.937" clip-path="url(#clipPath2)" stroke="none">execute</text>
    </g>
    <g fill="url(#linearGradient4)" text-rendering="geometricPrecision" shape-rendering="geometricPrecision" transform="matrix(1,0,0,1,-301,-226)" stroke="url(#linearGradient4)">
      <ellipse rx="40" ry="20" clip-path="url(#clipPath2)" cx="529.5" cy="296.48" stroke="none"/>
    </g>
    <g text-rendering="geometricPrecision" stroke-miterlimit="1.45" shape-rendering="geometricPrecision" transform="matrix(1,0,0,1,-301,-226)" stroke-linecap="butt">
      <ellipse rx="40" fill="none" ry="20" clip-path="url(#clipPath2)" cx="529.5" cy="296.48"/>
      <text x="521.8301" xml:space="preserve" y="300.6402" clip-path="url(#clipPath2)" font-family="sans-serif" stroke="none">init</text>
    </g>
    <g fill="url(#linearGradient5)" text-rendering="geometricPrecision" shape-rendering="geometricPrecision" transform="matrix(1,0,0,1,-301,-226)" stroke="url(#linearGradient5)">
      <ellipse rx="40" ry="20" clip-path="url(#clipPath2)" cx="529.5" cy="439.528" stroke="none"/>
    </g>
    <g text-rendering="geometricPrecision" stroke-miterlimit="1.45" shape-rendering="geometricPrecision" transform="matrix(1,0,0,1,-301,-226)" stroke-linecap="butt">
      <ellipse rx="40" fill="none" ry="20" clip-path="url(#clipPath2)" cx="529.5" cy="439.528"/>
      <text x="490.4766" xml:space="preserve" y="443.6882" clip-path="url(#clipPath2)" font-family="sans-serif" stroke="none">offline-execute</text>
    </g>
    <g fill="url(#linearGradient6)" text-rendering="geometricPrecision" shape-rendering="geometricPrecision" transform="matrix(1,0,0,1,-301,-226)" stroke="url(#linearGradient6)">
      <ellipse rx="40" ry="20" clip-path="url(#clipPath2)" cx="529.5" cy="368.004" stroke="none"/>
    </g>
    <g text-rendering="geometricPrecision" stroke-miterlimit="1.45" shape-rendering="geometricPrecision" transform="matrix(1,0,0,1,-301,-226)" stroke-linecap="butt">
      <ellipse rx="40" fill="none" ry="20" clip-path="url(#clipPath2)" cx="529.5" cy="368.004"/>
      <text x="514.8223" xml:space="preserve" y="372.1642" clip-path="url(#clipPath2)" font-family="sans-serif" stroke="none">stage</text>
    </g>
    <g fill="url(#linearGradient7)" text-rendering="geometricPrecision" shape-rendering="geometricPrecision" transform="matrix(1,0,0,1,-301,-226)" stroke="url(#linearGradient7)">
      <ellipse rx="40" ry="20" clip-path="url(#clipPath2)" cx="765.848" cy="342.96" stroke="none"/>
    </g>
    <g text-rendering="geometricPrecision" stroke-miterlimit="1.45" shape-rendering="geometricPrecision" transform="matrix(1,0,0,1,-301,-226)" stroke-linecap="butt">
      <ellipse rx="40" fill="none" ry="20" clip-path="url(#clipPath2)" cx="765.848" cy="342.96"/>
      <text x="732.4965" xml:space="preserve" y="347.1201" clip-path="url(#clipPath2)" font-family="sans-serif" stroke="none">export-stage</text>
    </g>
    <g fill="url(#linearGradient8)" text-rendering="geometricPrecision" shape-rendering="geometricPrecision" transform="matrix(1,0,0,1,-301,-226)" stroke="url(#linearGradient8)">
      <ellipse rx="40" ry="20" clip-path="url(#clipPath2)" cx="765.848" cy="390.744" stroke="none"/>
    </g>
    <g text-rendering="geometricPrecision" stroke-miterlimit="1.45" shape-rendering="geometricPrecision" transform="matrix(1,0,0,1,-301,-226)" stroke-linecap="butt">
      <ellipse rx="40" fill="none" ry="20" clip-path="url(#clipPath2)" cx="765.848" cy="390.744"/>
      <text x="729.5023" xml:space="preserve" y="394.9041" clip-path="url(#clipPath2)" font-family="sans-serif" stroke="none">export-results</text>
    </g>
    <g fill="url(#linearGradient9)" text-rendering="geometricPrecision" shape-rendering="geometricPrecision" transform="matrix(1,0,0,1,-301,-226)" stroke="url(#linearGradient9)">
      <path d="M730.848 434.528 L805.848 434.528 Q795.848 454.528 805.848 474.528 L730.848 474.528 Q720.848 454.528 730.848 434.528 Z" stroke="none" clip-path="url(#clipPath2)"/>
    </g>
    <g text-rendering="geometricPrecision" stroke-miterlimit="1.45" shape-rendering="geometricPrecision" transform="matrix(1,0,0,1,-301,-226)" stroke-linecap="butt">
      <path fill="none" d="M730.848 434.528 L805.848 434.528 Q795.848 454.528 805.848 474.528 L730.848 474.528 Q720.848 454.528 730.848 434.528 Z" clip-path="url(#clipPath2)"/>
      <text x="739.4984" xml:space="preserve" y="445.2819" clip-path="url(#clipPath2)" font-family="sans-serif" stroke="none">Execution</text>
      <text x="745.8412" xml:space="preserve" y="458.6882" clip-path="url(#clipPath2)" font-family="sans-serif" stroke="none">Results</text>
      <text x="740.1781" xml:space="preserve" y="472.0944" clip-path="url(#clipPath2)" font-family="sans-serif" stroke="none">RO-Crate</text>
    </g>
    <g fill="url(#linearGradient10)" text-rendering="geometricPrecision" shape-rendering="geometricPrecision" transform="matrix(1,0,0,1,-301,-226)" stroke="url(#linearGradient10)">
      <path d="M730.848 244.0737 L805.848 244.0737 Q795.848 264.0738 805.848 284.0738 L730.848 284.0738 Q720.848 264.0738 730.848 244.0737 Z" stroke="none" clip-path="url(#clipPath2)"/>
    </g>
    <g text-rendering="geometricPrecision" stroke-miterlimit="1.45" shape-rendering="geometricPrecision" transform="matrix(1,0,0,1,-301,-226)" stroke-linecap="butt">
      <path fill="none" d="M730.848 244.0737 L805.848 244.0737 Q795.848 264.0738 805.848 284.0738 L730.848 284.0738 Q720.848 264.0738 730.848 244.0737 Z" clip-path="url(#clipPath2)"/>
      <text x="746.8314" xml:space="preserve" y="254.8277" clip-path="url(#clipPath2)" font-family="sans-serif" stroke="none">Staged</text>
      <text x="741.1801" xml:space="preserve" y="268.2339" clip-path="url(#clipPath2)" font-family="sans-serif" stroke="none">Workflow</text>
      <text x="740.1781" xml:space="preserve" y="281.6402" clip-path="url(#clipPath2)" font-family="sans-serif" stroke="none">RO-Crate</text>
    </g>
    <g text-rendering="geometricPrecision" stroke-miterlimit="1.45" shape-rendering="geometricPrecision" transform="matrix(1,0,0,1,-301,-226)" stroke-linecap="butt">
      <path fill="none" d="M489.8478 299.1517 L415.4014 304.1678 L410.6552 304.9573 L406.3942 306.6536 L402.6181 309.2566 L399.3272 312.7664 L378.9425 339.2686" clip-path="url(#clipPath2)"/>
      <path d="M372.236 347.9877 L384.308 342.134 L374.7963 334.8178 Z" clip-path="url(#clipPath2)" stroke="none"/>
    </g>
    <g text-rendering="geometricPrecision" stroke-miterlimit="1.45" shape-rendering="geometricPrecision" transform="matrix(1,0,0,1,-301,-226)" stroke-linecap="butt">
      <path fill="none" d="M394.9888 383.807 L488.5667 422.5715" clip-path="url(#clipPath2)"/>
      <path d="M498.7292 426.7813 L489.9391 416.6456 L485.3466 427.732 Z" clip-path="url(#clipPath2)" stroke="none"/>
    </g>
    <g text-rendering="geometricPrecision" stroke-miterlimit="1.45" shape-rendering="geometricPrecision" transform="matrix(1,0,0,1,-301,-226)" stroke-linecap="butt">
      <path fill="none" d="M564.6245 418.5794 L606.4518 393.6331" clip-path="url(#clipPath2)"/>
      <path d="M555.1771 424.2139 L568.5566 423.2203 L562.4099 412.9141 Z" clip-path="url(#clipPath2)" stroke="none"/>
      <path d="M615.8992 387.9986 L602.5196 388.9922 L608.6663 399.2984 Z" clip-path="url(#clipPath2)" stroke="none"/>
    </g>
    <g text-rendering="geometricPrecision" stroke-miterlimit="1.45" shape-rendering="geometricPrecision" transform="matrix(1,0,0,1,-301,-226)" stroke-linecap="butt">
      <path fill="none" d="M478.4965 368.004 L402.8502 368.004" clip-path="url(#clipPath2)"/>
      <path d="M489.4965 368.004 L477.4965 362.004 L477.4965 374.004 Z" clip-path="url(#clipPath2)" stroke="none"/>
      <path d="M391.8502 368.004 L403.8502 374.004 L403.8502 362.004 Z" clip-path="url(#clipPath2)" stroke="none"/>
    </g>
    <g text-rendering="geometricPrecision" stroke-miterlimit="1.45" shape-rendering="geometricPrecision" transform="matrix(1,0,0,1,-301,-226)" stroke-linecap="butt">
      <path fill="none" d="M569.5234 368.004 L598.4347 368.004" clip-path="url(#clipPath2)"/>
      <path d="M609.4347 368.004 L597.4347 362.004 L597.4347 374.004 Z" clip-path="url(#clipPath2)" stroke="none"/>
    </g>
    <g text-rendering="geometricPrecision" stroke-miterlimit="1.45" shape-rendering="geometricPrecision" transform="matrix(1,0,0,1,-301,-226)" stroke-linecap="butt">
      <path fill="none" d="M685.1528 360.3184 L718.332 353.1812" clip-path="url(#clipPath2)"/>
      <path d="M729.086 350.8679 L716.0925 347.5257 L718.6161 359.2573 Z" clip-path="url(#clipPath2)" stroke="none"/>
    </g>
    <g text-rendering="geometricPrecision" stroke-miterlimit="1.45" shape-rendering="geometricPrecision" transform="matrix(1,0,0,1,-301,-226)" stroke-linecap="butt">
      <path fill="none" d="M685.0391 374.9604 L717.7646 381.3523" clip-path="url(#clipPath2)"/>
      <path d="M728.5606 383.461 L717.9333 375.2719 L715.633 387.0493 Z" clip-path="url(#clipPath2)" stroke="none"/>
    </g>
    <g text-rendering="geometricPrecision" stroke-miterlimit="1.45" shape-rendering="geometricPrecision" transform="matrix(1,0,0,1,-301,-226)" stroke-linecap="butt">
      <path fill="none" d="M765.848 410.7699 L765.848 423.4865" clip-path="url(#clipPath2)"/>
      <path d="M765.848 434.4865 L771.848 422.4865 L759.848 422.4865 Z" clip-path="url(#clipPath2)" stroke="none"/>
    </g>
    <g text-rendering="geometricPrecision" stroke-miterlimit="1.45" shape-rendering="geometricPrecision" transform="matrix(1,0,0,1,-301,-226)" stroke-linecap="butt">
      <path fill="none" d="M765.848 322.9688 L765.848 295.0601" clip-path="url(#clipPath2)"/>
      <path d="M765.848 284.0601 L759.848 296.0601 L771.848 296.0601 Z" clip-path="url(#clipPath2)" stroke="none"/>
    </g>
  </g>
</svg>
